<mxfile host="app.diagrams.net" modified="2022-03-18T23:32:07.925Z" agent="5.0 (Windows NT 10.0; Win64; x64) AppleWebKit/537.36 (KHTML, like Gecko) Chrome/99.0.4844.51 Safari/537.36 Edg/99.0.1150.39" etag="apfiRo7aQFfoROnyJPsI" version="17.1.3" type="github" pages="2">
  <diagram name="Page-1" id="c9db0220-8083-56f3-ca83-edcdcd058819">
    <mxGraphModel dx="1884" dy="1228" grid="1" gridSize="10" guides="1" tooltips="1" connect="1" arrows="1" fold="1" page="1" pageScale="1.5" pageWidth="826" pageHeight="1169" background="none" math="0" shadow="0">
      <root>
        <mxCell id="0" style=";html=1;" />
        <mxCell id="1" style=";html=1;" parent="0" />
        <mxCell id="3d76a8aef4d5c911-1" value="" style="html=1;shadow=0;dashed=0;shape=mxgraph.bootstrap.rect;fillColor=#000000;strokeColor=#006EAF;whiteSpace=wrap;rounded=0;fontSize=12;align=center;fontColor=#ffffff;" parent="1" vertex="1">
          <mxGeometry x="40" y="70" width="1150" height="40" as="geometry" />
        </mxCell>
        <mxCell id="3d76a8aef4d5c911-2" value="Company" style="html=1;shadow=0;dashed=0;fillColor=none;strokeColor=none;shape=mxgraph.bootstrap.rect;fontColor=#999999;fontSize=14;whiteSpace=wrap;" parent="3d76a8aef4d5c911-1" vertex="1">
          <mxGeometry width="115" height="40" as="geometry" />
        </mxCell>
        <mxCell id="3d76a8aef4d5c911-3" value="People" style="html=1;shadow=0;dashed=0;shape=mxgraph.bootstrap.rect;fillColor=#000000;strokeColor=none;fontColor=#ffffff;spacingRight=30;whiteSpace=wrap;" parent="3d76a8aef4d5c911-1" vertex="1">
          <mxGeometry x="115" width="129.375" height="40" as="geometry" />
        </mxCell>
        <mxCell id="3d76a8aef4d5c911-4" value="84" style="html=1;shadow=0;dashed=0;shape=mxgraph.bootstrap.rrect;rSize=8;fillColor=#ff0000;strokeColor=none;fontColor=#ffffff;whiteSpace=wrap;" parent="3d76a8aef4d5c911-3" vertex="1">
          <mxGeometry x="1" y="0.5" width="25" height="16" relative="1" as="geometry">
            <mxPoint x="-30" y="-8" as="offset" />
          </mxGeometry>
        </mxCell>
        <mxCell id="3d76a8aef4d5c911-5" value="Violations" style="html=1;shadow=0;dashed=0;fillColor=none;strokeColor=none;shape=mxgraph.bootstrap.rect;fontColor=#999999;spacingRight=30;whiteSpace=wrap;" parent="3d76a8aef4d5c911-1" vertex="1">
          <mxGeometry x="244.38" width="155.63" height="40" as="geometry" />
        </mxCell>
        <mxCell id="3d76a8aef4d5c911-6" value="42" style="html=1;shadow=0;dashed=0;shape=mxgraph.bootstrap.rrect;rSize=8;fillColor=#ff0000;strokeColor=none;fontColor=#ffffff;whiteSpace=wrap;" parent="3d76a8aef4d5c911-5" vertex="1">
          <mxGeometry x="1" y="0.5" width="25" height="16" relative="1" as="geometry">
            <mxPoint x="-30" y="-8" as="offset" />
          </mxGeometry>
        </mxCell>
        <mxCell id="3d76a8aef4d5c911-7" value="Statistics" style="html=1;shadow=0;dashed=0;fillColor=none;strokeColor=none;shape=mxgraph.bootstrap.rect;fontColor=#999999;whiteSpace=wrap;" parent="3d76a8aef4d5c911-1" vertex="1">
          <mxGeometry x="402.5" width="115" height="40" as="geometry" />
        </mxCell>
        <mxCell id="3d76a8aef4d5c911-8" value="Settings" style="html=1;shadow=0;dashed=0;fillColor=none;strokeColor=none;shape=mxgraph.bootstrap.rect;fontColor=#999999;whiteSpace=wrap;" parent="3d76a8aef4d5c911-1" vertex="1">
          <mxGeometry x="517.5" width="100.625" height="40" as="geometry" />
        </mxCell>
        <mxCell id="3d76a8aef4d5c911-9" value="Profile" style="html=1;shadow=0;dashed=0;fillColor=none;strokeColor=none;shape=mxgraph.bootstrap.rect;fontColor=#999999;whiteSpace=wrap;" parent="3d76a8aef4d5c911-1" vertex="1">
          <mxGeometry x="948.75" width="100.625" height="40" as="geometry" />
        </mxCell>
        <mxCell id="3d76a8aef4d5c911-10" value="Log Out" style="html=1;shadow=0;dashed=0;fillColor=none;strokeColor=none;shape=mxgraph.bootstrap.rect;fontColor=#999999;whiteSpace=wrap;" parent="3d76a8aef4d5c911-1" vertex="1">
          <mxGeometry x="1049.375" width="100.625" height="40" as="geometry" />
        </mxCell>
        <mxCell id="yzlQTlRIuEsXStbByIdi-1" value="Login" style="html=1;shadow=0;dashed=0;fillColor=none;strokeColor=none;shape=mxgraph.bootstrap.rect;fontColor=#999999;whiteSpace=wrap;" vertex="1" parent="3d76a8aef4d5c911-1">
          <mxGeometry x="820" width="100.625" height="40" as="geometry" />
        </mxCell>
        <mxCell id="3d76a8aef4d5c911-11" value="" style="html=1;shadow=0;dashed=0;shape=mxgraph.bootstrap.rrect;rSize=5;strokeColor=#dddddd;rounded=0;fontSize=12;align=center;" parent="1" vertex="1">
          <mxGeometry x="860" y="150" width="330" height="400" as="geometry" />
        </mxCell>
        <mxCell id="3d76a8aef4d5c911-12" value="320x200" style="shape=rect;fontSize=24;fillColor=#f0f0f0;strokeColor=none;fontColor=#999999;whiteSpace=wrap;" parent="3d76a8aef4d5c911-11" vertex="1">
          <mxGeometry x="5" y="5" width="320" height="200" as="geometry" />
        </mxCell>
        <mxCell id="3d76a8aef4d5c911-13" value="Thumbnail label" style="html=1;shadow=0;dashed=0;shape=mxgraph.bootstrap.anchor;fontSize=26;align=left;whiteSpace=wrap;" parent="3d76a8aef4d5c911-11" vertex="1">
          <mxGeometry x="15" y="220" width="300" height="40" as="geometry" />
        </mxCell>
        <mxCell id="3d76a8aef4d5c911-14" value="Cras justo odio, dapibus ac facilisis in, egestas eget quam. Donec id elit non mi porta gravida at eget metus. Nullam id dolor id nibh ultricies vehicula ut id elit." style="html=1;shadow=0;dashed=0;shape=mxgraph.bootstrap.anchor;strokeColor=#dddddd;whiteSpace=wrap;align=left;verticalAlign=top;fontSize=14;whiteSpace=wrap;" parent="3d76a8aef4d5c911-11" vertex="1">
          <mxGeometry x="15" y="260" width="300" height="80" as="geometry" />
        </mxCell>
        <mxCell id="3d76a8aef4d5c911-15" value="Button" style="html=1;shadow=0;dashed=0;shape=mxgraph.bootstrap.rrect;rSize=5;fontSize=16;fillColor=#3D8BCD;strokeColor=none;fontColor=#ffffff;whiteSpace=wrap;" parent="3d76a8aef4d5c911-11" vertex="1">
          <mxGeometry y="1" width="80" height="40" relative="1" as="geometry">
            <mxPoint x="15" y="-60" as="offset" />
          </mxGeometry>
        </mxCell>
        <mxCell id="3d76a8aef4d5c911-16" value="Button" style="html=1;shadow=0;dashed=0;shape=mxgraph.bootstrap.rrect;rSize=5;fontSize=16;strokeColor=#dddddd;whiteSpace=wrap;" parent="3d76a8aef4d5c911-11" vertex="1">
          <mxGeometry y="1" width="80" height="40" relative="1" as="geometry">
            <mxPoint x="100" y="-60" as="offset" />
          </mxGeometry>
        </mxCell>
        <mxCell id="3d76a8aef4d5c911-17" value="Template name" style="html=1;shadow=0;dashed=0;shape=mxgraph.bootstrap.rect;strokeColor=none;fillColor=none;fontColor=#999999;align=left;spacingLeft=5;whiteSpace=wrap;rounded=0;" parent="1" vertex="1">
          <mxGeometry x="40" y="130" width="200" height="20" as="geometry" />
        </mxCell>
        <mxCell id="3d76a8aef4d5c911-18" value="Uncompleted Profile" style="html=1;shadow=0;dashed=0;shape=mxgraph.bootstrap.rrect;rSize=5;strokeColor=#dddddd;;align=left;spacingLeft=10;fontSize=16;whiteSpace=wrap;rounded=0;" parent="1" vertex="1">
          <mxGeometry x="40" y="150" width="800" height="40" as="geometry" />
        </mxCell>
        <mxCell id="3d76a8aef4d5c911-19" value="Subject" style="html=1;shadow=0;dashed=0;shape=mxgraph.bootstrap.rect;strokeColor=none;fillColor=none;fontColor=#999999;align=left;spacingLeft=5;whiteSpace=wrap;rounded=0;" parent="1" vertex="1">
          <mxGeometry x="40" y="210" width="200" height="20" as="geometry" />
        </mxCell>
        <mxCell id="3d76a8aef4d5c911-20" value="Hello, %USER_FULL_NAME%" style="html=1;shadow=0;dashed=0;shape=mxgraph.bootstrap.rrect;rSize=5;strokeColor=#dddddd;align=left;spacingLeft=10;fontSize=16;whiteSpace=wrap;rounded=0;" parent="1" vertex="1">
          <mxGeometry x="40" y="230" width="800" height="40" as="geometry" />
        </mxCell>
        <mxCell id="3d76a8aef4d5c911-21" value="Insert System Variable" style="html=1;shadow=0;dashed=0;shape=mxgraph.bootstrap.rect;strokeColor=none;fillColor=none;align=right;fontSize=10;whiteSpace=wrap;rounded=0;" parent="1" vertex="1">
          <mxGeometry x="690" y="210" width="120" height="20" as="geometry" />
        </mxCell>
        <mxCell id="3d76a8aef4d5c911-22" value="" style="shape=triangle;strokeColor=none;fillColor=#000000;direction=south;rounded=0;shadow=1;fontSize=12;fontColor=#000000;align=center;html=1;" parent="1" vertex="1">
          <mxGeometry x="812" y="217" width="8" height="4" as="geometry" />
        </mxCell>
        <mxCell id="3d76a8aef4d5c911-23" value="Message" style="html=1;shadow=0;dashed=0;shape=mxgraph.bootstrap.rect;strokeColor=none;fillColor=none;fontColor=#999999;align=left;spacingLeft=5;whiteSpace=wrap;rounded=0;" parent="1" vertex="1">
          <mxGeometry x="40" y="290" width="200" height="20" as="geometry" />
        </mxCell>
        <mxCell id="3d76a8aef4d5c911-24" value="Hello %USER_FULL_NAME%!&#xa;&#xa;At vero eos et accusamus et iusto odio dignissimos ducimus, qui blanditiis praesentium voluptatum deleniti atque corrupti, quosdolores et quas molestias excepturi sint, obcaecati cupiditate non provident, similique sunt in culpa, qui officia deserunt mollitiaanimi, id est laborum et dolorum fuga. Et harum quidem rerum facilis est et expedita distinctio. Nam libero tempore, cum solutanobis est eligendi optio, cumque nihil impedit, quo minus id, quod maxime placeat, facere possimus, omnis voluptas assumendaest, omnis dolor repellendus." style="html=1;shadow=0;dashed=0;shape=mxgraph.bootstrap.rrect;rSize=5;fontSize=12;strokeColor=#dddddd;align=left;spacing=10;verticalAlign=top;whiteSpace=wrap;rounded=0;" parent="1" vertex="1">
          <mxGeometry x="40" y="310" width="800" height="240" as="geometry" />
        </mxCell>
        <mxCell id="3d76a8aef4d5c911-25" value="Insert System Variable" style="html=1;shadow=0;dashed=0;shape=mxgraph.bootstrap.rect;strokeColor=none;fillColor=none;align=right;fontSize=10;whiteSpace=wrap;rounded=0;" parent="1" vertex="1">
          <mxGeometry x="690" y="290" width="120" height="20" as="geometry" />
        </mxCell>
        <mxCell id="3d76a8aef4d5c911-26" value="" style="shape=triangle;strokeColor=none;fillColor=#000000;direction=south;rounded=0;shadow=1;fontSize=12;fontColor=#000000;align=center;html=1;" parent="1" vertex="1">
          <mxGeometry x="812" y="297" width="8" height="4" as="geometry" />
        </mxCell>
        <mxCell id="3d76a8aef4d5c911-27" value="%USER_FULL_NAME%&#xa;%USER_EMAIL%&#xa;%USER_PROFILE_COMPLETENESS%&#xa;%USER_NUM_SUCCESS_TRADES%&#xa;%USER_FULL_NAME%&#xa;%USER_EMAIL%&#xa;%USER_PROFILE_COMPLETENESS%&#xa;%USER_NUM_SUCCESS_SELLS%" style="html=1;shadow=0;dashed=0;shape=mxgraph.bootstrap.rrect;fontSize=12;rSize=2;strokeColor=#dddddd;align=left;verticalAlign=top;spacing=10;shadow=1;whiteSpace=wrap;rounded=0;" parent="1" vertex="1">
          <mxGeometry x="590" y="305" width="240" height="140" as="geometry" />
        </mxCell>
        <mxCell id="3d76a8aef4d5c911-28" value="Message Type" style="html=1;shadow=0;dashed=0;shape=mxgraph.bootstrap.rect;strokeColor=none;fillColor=none;fontColor=#999999;align=left;spacingLeft=5;whiteSpace=wrap;rounded=0;" parent="1" vertex="1">
          <mxGeometry x="40" y="570" width="200" height="20" as="geometry" />
        </mxCell>
        <mxCell id="3d76a8aef4d5c911-29" value="Email + Push" style="html=1;shadow=0;dashed=0;shape=mxgraph.bootstrap.rrect;rSize=5;strokeColor=#dddddd;align=left;spacingLeft=10;fontSize=16;whiteSpace=wrap;rounded=0;" parent="1" vertex="1">
          <mxGeometry x="40" y="590" width="390" height="40" as="geometry" />
        </mxCell>
        <mxCell id="3d76a8aef4d5c911-30" value="" style="shape=triangle;strokeColor=none;fillColor=#000000;direction=south;rounded=0;shadow=1;fontSize=12;fontColor=#000000;align=center;html=1;" parent="1" vertex="1">
          <mxGeometry x="410" y="607" width="10" height="5" as="geometry" />
        </mxCell>
        <mxCell id="3d76a8aef4d5c911-31" value="Tap target" style="html=1;shadow=0;dashed=0;shape=mxgraph.bootstrap.rect;strokeColor=none;fillColor=none;fontColor=#999999;align=left;spacingLeft=5;whiteSpace=wrap;rounded=0;" parent="1" vertex="1">
          <mxGeometry x="450" y="570" width="200" height="20" as="geometry" />
        </mxCell>
        <mxCell id="3d76a8aef4d5c911-32" value="Profile Screen" style="html=1;shadow=0;dashed=0;shape=mxgraph.bootstrap.rrect;rSize=5;strokeColor=#dddddd;align=left;spacingLeft=10;fontSize=16;whiteSpace=wrap;rounded=0;" parent="1" vertex="1">
          <mxGeometry x="450" y="590" width="390" height="40" as="geometry" />
        </mxCell>
        <mxCell id="3d76a8aef4d5c911-33" value="" style="shape=triangle;strokeColor=none;fillColor=#000000;direction=south;rounded=0;shadow=1;fontSize=12;fontColor=#000000;align=center;html=1;" parent="1" vertex="1">
          <mxGeometry x="820" y="607" width="10" height="5" as="geometry" />
        </mxCell>
        <mxCell id="3d76a8aef4d5c911-34" value="Send to Group" style="html=1;shadow=0;dashed=0;shape=mxgraph.bootstrap.rect;strokeColor=none;fillColor=none;fontColor=#999999;align=left;spacingLeft=5;whiteSpace=wrap;rounded=0;" parent="1" vertex="1">
          <mxGeometry x="40" y="650" width="200" height="20" as="geometry" />
        </mxCell>
        <mxCell id="3d76a8aef4d5c911-35" value="Top Management" style="html=1;shadow=0;dashed=0;shape=mxgraph.bootstrap.checkbox;fontSize=12;strokeColor=#999999;align=left;labelPosition=right;spacingLeft=5;rounded=0;" parent="1" vertex="1">
          <mxGeometry x="50" y="673" width="14" height="14" as="geometry" />
        </mxCell>
        <mxCell id="3d76a8aef4d5c911-36" value="Marketing Department" style="html=1;shadow=0;dashed=0;shape=mxgraph.bootstrap.rrect;fontSize=12;rSize=3;strokeColor=#999999;align=left;labelPosition=right;spacingLeft=5;rounded=0;" parent="1" vertex="1">
          <mxGeometry x="50" y="693" width="14" height="14" as="geometry" />
        </mxCell>
        <mxCell id="3d76a8aef4d5c911-37" value="Design Department" style="html=1;shadow=0;dashed=0;shape=mxgraph.bootstrap.checkbox;fontSize=12;strokeColor=#999999;align=left;labelPosition=right;spacingLeft=5;rounded=0;" parent="1" vertex="1">
          <mxGeometry x="50" y="713" width="14" height="14" as="geometry" />
        </mxCell>
        <mxCell id="3d76a8aef4d5c911-38" value="Financial Department" style="html=1;shadow=0;dashed=0;shape=mxgraph.bootstrap.rrect;fontSize=12;rSize=3;strokeColor=#999999;align=left;labelPosition=right;spacingLeft=5;rounded=0;" parent="1" vertex="1">
          <mxGeometry x="50" y="733" width="14" height="14" as="geometry" />
        </mxCell>
        <mxCell id="3d76a8aef4d5c911-39" value="Supply Department" style="html=1;shadow=0;dashed=0;shape=mxgraph.bootstrap.rrect;fontSize=12;rSize=3;strokeColor=#999999;align=left;labelPosition=right;spacingLeft=5;rounded=0;" parent="1" vertex="1">
          <mxGeometry x="50" y="753" width="14" height="14" as="geometry" />
        </mxCell>
        <mxCell id="3d76a8aef4d5c911-40" value="Set Type" style="html=1;shadow=0;dashed=0;shape=mxgraph.bootstrap.rect;strokeColor=none;fillColor=none;fontColor=#999999;align=left;spacingLeft=5;whiteSpace=wrap;rounded=0;" parent="1" vertex="1">
          <mxGeometry x="450" y="650" width="200" height="20" as="geometry" />
        </mxCell>
        <mxCell id="3d76a8aef4d5c911-41" value="" style="shape=ellipse;dashed=0;strokeColor=#999999;fillColor=#ffffff;html=1;rounded=0;shadow=1;fontSize=12;fontColor=#000000;align=center;" parent="1" vertex="1">
          <mxGeometry x="460" y="673" width="14" height="14" as="geometry" />
        </mxCell>
        <mxCell id="3d76a8aef4d5c911-42" value="News" style="html=1;shadow=0;dashed=0;shape=mxgraph.bootstrap.rrect;align=center;rSize=3;strokeColor=none;fillColor=#58B957;fontColor=#ffffff;fontStyle=1;fontSize=10;whiteSpace=wrap;rounded=0;" parent="1" vertex="1">
          <mxGeometry x="480" y="673" width="40" height="14" as="geometry" />
        </mxCell>
        <mxCell id="3d76a8aef4d5c911-43" value="" style="html=1;shadow=0;dashed=0;shape=mxgraph.bootstrap.radioButton;strokeColor=#999999;fillColor=#ffffff;rounded=0;fontSize=12;fontColor=#000000;align=center;" parent="1" vertex="1">
          <mxGeometry x="460" y="693" width="14" height="14" as="geometry" />
        </mxCell>
        <mxCell id="3d76a8aef4d5c911-44" value="Reports" style="html=1;shadow=0;dashed=0;shape=mxgraph.bootstrap.rrect;align=center;rSize=3;strokeColor=none;fillColor=#55BFE0;fontColor=#ffffff;fontStyle=1;fontSize=10;whiteSpace=wrap;rounded=0;" parent="1" vertex="1">
          <mxGeometry x="480" y="693" width="50" height="14" as="geometry" />
        </mxCell>
        <mxCell id="3d76a8aef4d5c911-45" value="" style="shape=ellipse;dashed=0;strokeColor=#999999;fillColor=#ffffff;html=1;rounded=0;shadow=1;fontSize=12;fontColor=#000000;align=center;" parent="1" vertex="1">
          <mxGeometry x="460" y="713" width="14" height="14" as="geometry" />
        </mxCell>
        <mxCell id="3d76a8aef4d5c911-46" value="Documents" style="html=1;shadow=0;dashed=0;shape=mxgraph.bootstrap.rrect;align=center;rSize=3;strokeColor=none;fillColor=#EFAC43;fontColor=#ffffff;fontStyle=1;fontSize=10;whiteSpace=wrap;rounded=0;" parent="1" vertex="1">
          <mxGeometry x="480" y="713" width="70" height="14" as="geometry" />
        </mxCell>
        <mxCell id="3d76a8aef4d5c911-47" value="" style="shape=ellipse;dashed=0;strokeColor=#999999;fillColor=#ffffff;html=1;rounded=0;shadow=1;fontSize=12;fontColor=#000000;align=center;" parent="1" vertex="1">
          <mxGeometry x="460" y="733" width="14" height="14" as="geometry" />
        </mxCell>
        <mxCell id="3d76a8aef4d5c911-48" value="Media" style="html=1;shadow=0;dashed=0;shape=mxgraph.bootstrap.rrect;align=center;rSize=3;strokeColor=none;fillColor=#3D8BCD;fontColor=#ffffff;fontStyle=1;fontSize=10;whiteSpace=wrap;rounded=0;" parent="1" vertex="1">
          <mxGeometry x="480" y="733" width="40" height="14" as="geometry" />
        </mxCell>
        <mxCell id="3d76a8aef4d5c911-49" value="" style="shape=ellipse;dashed=0;strokeColor=#999999;fillColor=#ffffff;html=1;rounded=0;shadow=1;fontSize=12;fontColor=#000000;align=center;" parent="1" vertex="1">
          <mxGeometry x="460" y="753" width="14" height="14" as="geometry" />
        </mxCell>
        <mxCell id="3d76a8aef4d5c911-50" value="Text" style="html=1;shadow=0;dashed=0;shape=mxgraph.bootstrap.rrect;align=center;rSize=3;strokeColor=none;fillColor=#999999;fontColor=#ffffff;fontStyle=1;fontSize=10;whiteSpace=wrap;rounded=0;" parent="1" vertex="1">
          <mxGeometry x="480" y="753" width="30" height="14" as="geometry" />
        </mxCell>
        <mxCell id="3d76a8aef4d5c911-51" value="Save Template" style="html=1;shadow=0;dashed=0;shape=mxgraph.bootstrap.rrect;align=center;rSize=5;strokeColor=none;fillColor=#3D8BCD;fontColor=#ffffff;fontSize=16;whiteSpace=wrap;rounded=0;" parent="1" vertex="1">
          <mxGeometry x="40" y="810" width="150" height="40" as="geometry" />
        </mxCell>
        <mxCell id="3d76a8aef4d5c911-52" value="Cancel" style="html=1;shadow=0;dashed=0;shape=mxgraph.bootstrap.rrect;align=center;rSize=5;strokeColor=#dddddd;fontSize=16;whiteSpace=wrap;rounded=0;" parent="1" vertex="1">
          <mxGeometry x="210" y="810" width="100" height="40" as="geometry" />
        </mxCell>
        <mxCell id="3d76a8aef4d5c911-53" value="Delete Template" style="html=1;shadow=0;dashed=0;shape=mxgraph.bootstrap.rrect;align=center;rSize=5;strokeColor=none;fillColor=#DB524C;fontColor=#ffffff;fontSize=16;whiteSpace=wrap;rounded=0;" parent="1" vertex="1">
          <mxGeometry x="670" y="810" width="170" height="40" as="geometry" />
        </mxCell>
        <mxCell id="3d76a8aef4d5c911-54" value="" style="html=1;shadow=0;dashed=0;shape=mxgraph.bootstrap.rrect;rSize=5;strokeColor=#dddddd;rounded=0;fontSize=12;align=center;" parent="1" vertex="1">
          <mxGeometry x="860" y="580" width="330" height="400" as="geometry" />
        </mxCell>
        <mxCell id="3d76a8aef4d5c911-55" value="320x200" style="shape=rect;fontSize=24;fillColor=#f0f0f0;strokeColor=none;fontColor=#999999;whiteSpace=wrap;" parent="3d76a8aef4d5c911-54" vertex="1">
          <mxGeometry x="5" y="5" width="320" height="200" as="geometry" />
        </mxCell>
        <mxCell id="3d76a8aef4d5c911-56" value="Thumbnail label" style="html=1;shadow=0;dashed=0;shape=mxgraph.bootstrap.anchor;fontSize=26;align=left;whiteSpace=wrap;" parent="3d76a8aef4d5c911-54" vertex="1">
          <mxGeometry x="15" y="220" width="300" height="40" as="geometry" />
        </mxCell>
        <mxCell id="3d76a8aef4d5c911-57" value="Cras justo odio, dapibus ac facilisis in, egestas eget quam. Donec id elit non mi porta gravida at eget metus. Nullam id dolor id nibh ultricies vehicula ut id elit." style="html=1;shadow=0;dashed=0;shape=mxgraph.bootstrap.anchor;strokeColor=#dddddd;whiteSpace=wrap;align=left;verticalAlign=top;fontSize=14;whiteSpace=wrap;" parent="3d76a8aef4d5c911-54" vertex="1">
          <mxGeometry x="15" y="260" width="300" height="80" as="geometry" />
        </mxCell>
        <mxCell id="3d76a8aef4d5c911-58" value="Button" style="html=1;shadow=0;dashed=0;shape=mxgraph.bootstrap.rrect;rSize=5;fontSize=16;fillColor=#3D8BCD;strokeColor=none;fontColor=#ffffff;whiteSpace=wrap;" parent="3d76a8aef4d5c911-54" vertex="1">
          <mxGeometry y="1" width="80" height="40" relative="1" as="geometry">
            <mxPoint x="15" y="-60" as="offset" />
          </mxGeometry>
        </mxCell>
        <mxCell id="3d76a8aef4d5c911-59" value="Button" style="html=1;shadow=0;dashed=0;shape=mxgraph.bootstrap.rrect;rSize=5;fontSize=16;strokeColor=#dddddd;whiteSpace=wrap;" parent="3d76a8aef4d5c911-54" vertex="1">
          <mxGeometry y="1" width="80" height="40" relative="1" as="geometry">
            <mxPoint x="100" y="-60" as="offset" />
          </mxGeometry>
        </mxCell>
      </root>
    </mxGraphModel>
  </diagram>
  <diagram id="wSjDQYIYPTw5y7AEIsbc" name="Page-2">
    <mxGraphModel dx="1570" dy="1023" grid="1" gridSize="10" guides="1" tooltips="1" connect="1" arrows="1" fold="1" page="1" pageScale="1" pageWidth="827" pageHeight="1169" math="0" shadow="0">
      <root>
        <mxCell id="0rbXkGvfVulxc9f4ZoiJ-0" />
        <mxCell id="0rbXkGvfVulxc9f4ZoiJ-1" parent="0rbXkGvfVulxc9f4ZoiJ-0" />
        <mxCell id="0rbXkGvfVulxc9f4ZoiJ-2" value="" style="html=1;shadow=0;dashed=0;shape=mxgraph.bootstrap.rect;fillColor=#000000;strokeColor=#808080;whiteSpace=wrap;rounded=0;fontSize=12;align=center;fontColor=#ffffff;" vertex="1" parent="0rbXkGvfVulxc9f4ZoiJ-1">
          <mxGeometry x="40" y="71" width="1150" height="49" as="geometry" />
        </mxCell>
        <mxCell id="0rbXkGvfVulxc9f4ZoiJ-3" value="&lt;font color=&quot;#ffffff&quot;&gt;Equipamentos&lt;/font&gt;" style="html=1;shadow=0;dashed=0;fillColor=none;strokeColor=none;shape=mxgraph.bootstrap.rect;fontColor=#999999;fontSize=14;whiteSpace=wrap;" vertex="1" parent="0rbXkGvfVulxc9f4ZoiJ-2">
          <mxGeometry width="115" height="32" as="geometry" />
        </mxCell>
        <mxCell id="0rbXkGvfVulxc9f4ZoiJ-4" value="&lt;blockquote style=&quot;margin: 0 0 0 40px ; border: none ; padding: 0px&quot;&gt;&lt;font style=&quot;font-size: 14px&quot;&gt;Estoque&lt;/font&gt;&lt;/blockquote&gt;" style="html=1;shadow=0;dashed=0;shape=mxgraph.bootstrap.rect;fillColor=#000000;strokeColor=none;fontColor=#ffffff;spacingRight=30;whiteSpace=wrap;" vertex="1" parent="0rbXkGvfVulxc9f4ZoiJ-2">
          <mxGeometry x="115" width="129.375" height="32" as="geometry" />
        </mxCell>
        <mxCell id="0rbXkGvfVulxc9f4ZoiJ-13" value="&lt;font style=&quot;font-size: 14px&quot; color=&quot;#ffffff&quot;&gt;Setor&lt;/font&gt;" style="html=1;shadow=0;dashed=0;fillColor=none;strokeColor=none;shape=mxgraph.bootstrap.rect;fontColor=#999999;whiteSpace=wrap;align=center;" vertex="1" parent="0rbXkGvfVulxc9f4ZoiJ-2">
          <mxGeometry x="260" y="2" width="115" height="32" as="geometry" />
        </mxCell>
        <mxCell id="0rbXkGvfVulxc9f4ZoiJ-15" value="&lt;blockquote style=&quot;margin: 0 0 0 40px ; border: none ; padding: 0px&quot;&gt;&lt;blockquote style=&quot;margin: 0 0 0 40px ; border: none ; padding: 0px&quot;&gt;José&lt;/blockquote&gt;&lt;/blockquote&gt;" style="html=1;shadow=0;dashed=0;shape=mxgraph.bootstrap.rrect;rSize=5;strokeColor=none;strokeWidth=1;fillColor=#6C767D;fontColor=#ffffff;whiteSpace=wrap;align=left;verticalAlign=middle;fontStyle=0;fontSize=14;spacingLeft=10;" vertex="1" parent="0rbXkGvfVulxc9f4ZoiJ-2">
          <mxGeometry x="969" width="180" height="49" as="geometry" />
        </mxCell>
        <mxCell id="0rbXkGvfVulxc9f4ZoiJ-16" value="" style="shape=triangle;direction=south;fillColor=#ffffff;strokeColor=none;perimeter=none;fontSize=14;fontColor=#FFFFFF;" vertex="1" parent="0rbXkGvfVulxc9f4ZoiJ-15">
          <mxGeometry x="1" y="0.5" width="10" height="5" relative="1" as="geometry">
            <mxPoint x="-17" y="-2.5" as="offset" />
          </mxGeometry>
        </mxCell>
        <mxCell id="0rbXkGvfVulxc9f4ZoiJ-42" value="" style="image;html=1;image=img/lib/clip_art/people/Construction_Worker_Man_Black_128x128.png;fontSize=14;fontColor=#FFFFFF;strokeColor=#808080;fillColor=#6C767D;" vertex="1" parent="0rbXkGvfVulxc9f4ZoiJ-15">
          <mxGeometry x="-1.6800000000000637" y="-1" width="50" height="50" as="geometry" />
        </mxCell>
        <mxCell id="0rbXkGvfVulxc9f4ZoiJ-29" value="&lt;span style=&quot;text-align: center&quot;&gt;Manutenções&lt;/span&gt;" style="html=1;shadow=0;dashed=0;shape=mxgraph.bootstrap.rrect;rSize=5;strokeColor=none;strokeWidth=1;fillColor=#6C767D;fontColor=#ffffff;whiteSpace=wrap;align=left;verticalAlign=middle;fontStyle=0;fontSize=14;spacingLeft=10;" vertex="1" parent="0rbXkGvfVulxc9f4ZoiJ-2">
          <mxGeometry x="400" width="120" height="40" as="geometry" />
        </mxCell>
        <mxCell id="0rbXkGvfVulxc9f4ZoiJ-30" value="" style="shape=triangle;direction=south;fillColor=#ffffff;strokeColor=none;perimeter=none;fontSize=14;fontColor=#FFFFFF;" vertex="1" parent="0rbXkGvfVulxc9f4ZoiJ-29">
          <mxGeometry x="1" y="0.5" width="10" height="5" relative="1" as="geometry">
            <mxPoint x="-17" y="-2.5" as="offset" />
          </mxGeometry>
        </mxCell>
        <mxCell id="0rbXkGvfVulxc9f4ZoiJ-40" value="&lt;font color=&quot;#ffffff&quot;&gt;Indicadores&lt;/font&gt;" style="html=1;shadow=0;dashed=0;fillColor=none;strokeColor=none;shape=mxgraph.bootstrap.rect;fontColor=#999999;fontSize=14;whiteSpace=wrap;" vertex="1" parent="0rbXkGvfVulxc9f4ZoiJ-2">
          <mxGeometry x="590" y="4" width="115" height="32" as="geometry" />
        </mxCell>
        <mxCell id="0rbXkGvfVulxc9f4ZoiJ-17" value="" style="html=1;shadow=0;dashed=0;shape=mxgraph.bootstrap.rrect;rSize=5;fillColor=#ffffff;strokeColor=#999999;fontSize=14;fontColor=#FFFFFF;" vertex="1" parent="0rbXkGvfVulxc9f4ZoiJ-1">
          <mxGeometry x="1010" y="120" width="190" height="150" as="geometry" />
        </mxCell>
        <mxCell id="0rbXkGvfVulxc9f4ZoiJ-18" value="Action" style="fillColor=none;strokeColor=none;align=left;spacing=20;fontSize=14;fontColor=#FFFFFF;" vertex="1" parent="0rbXkGvfVulxc9f4ZoiJ-17">
          <mxGeometry width="170" height="30" relative="1" as="geometry">
            <mxPoint y="10" as="offset" />
          </mxGeometry>
        </mxCell>
        <mxCell id="0rbXkGvfVulxc9f4ZoiJ-19" value="Another action" style="fillColor=none;strokeColor=none;align=left;spacing=20;fontSize=14;fontColor=#FFFFFF;" vertex="1" parent="0rbXkGvfVulxc9f4ZoiJ-17">
          <mxGeometry width="170" height="30" relative="1" as="geometry">
            <mxPoint y="40" as="offset" />
          </mxGeometry>
        </mxCell>
        <mxCell id="0rbXkGvfVulxc9f4ZoiJ-20" value="Something else here" style="fillColor=none;strokeColor=none;align=left;spacing=20;fontSize=14;fontColor=#FFFFFF;" vertex="1" parent="0rbXkGvfVulxc9f4ZoiJ-17">
          <mxGeometry width="170" height="30" relative="1" as="geometry">
            <mxPoint y="70" as="offset" />
          </mxGeometry>
        </mxCell>
        <mxCell id="0rbXkGvfVulxc9f4ZoiJ-21" value="" style="shape=line;strokeColor=#999999;perimeter=none;resizeWidth=1;fontSize=14;fontColor=#FFFFFF;fillColor=#000000;" vertex="1" parent="0rbXkGvfVulxc9f4ZoiJ-17">
          <mxGeometry width="181.9718309859155" height="10" relative="1" as="geometry">
            <mxPoint y="100" as="offset" />
          </mxGeometry>
        </mxCell>
        <mxCell id="0rbXkGvfVulxc9f4ZoiJ-22" value="Separated link" style="fillColor=none;strokeColor=none;align=left;spacing=20;fontSize=14;fontColor=#FFFFFF;" vertex="1" parent="0rbXkGvfVulxc9f4ZoiJ-17">
          <mxGeometry width="170" height="30" relative="1" as="geometry">
            <mxPoint y="110" as="offset" />
          </mxGeometry>
        </mxCell>
        <mxCell id="0rbXkGvfVulxc9f4ZoiJ-11" value="&lt;font color=&quot;#000000&quot; style=&quot;font-size: 14px&quot;&gt;Log Out&lt;/font&gt;" style="html=1;shadow=0;dashed=0;fillColor=none;strokeColor=none;shape=mxgraph.bootstrap.rect;fontColor=#999999;whiteSpace=wrap;" vertex="1" parent="0rbXkGvfVulxc9f4ZoiJ-17">
          <mxGeometry x="-10.704225352112678" y="110" width="192.67605633802816" height="40" as="geometry" />
        </mxCell>
        <mxCell id="0rbXkGvfVulxc9f4ZoiJ-23" value="&lt;span style=&quot;color: rgb(0 , 0 , 0) ; font-size: 14px&quot;&gt;Configuração&lt;/span&gt;" style="html=1;shadow=0;dashed=0;fillColor=none;strokeColor=none;shape=mxgraph.bootstrap.rect;fontColor=#999999;whiteSpace=wrap;" vertex="1" parent="0rbXkGvfVulxc9f4ZoiJ-17">
          <mxGeometry x="-2.6760563380281694" y="55" width="192.67605633802816" height="40" as="geometry" />
        </mxCell>
        <mxCell id="0rbXkGvfVulxc9f4ZoiJ-24" value="&lt;span style=&quot;color: rgb(0 , 0 , 0) ; font-size: 14px&quot;&gt;Perfil&lt;/span&gt;" style="html=1;shadow=0;dashed=0;fillColor=none;strokeColor=none;shape=mxgraph.bootstrap.rect;fontColor=#999999;whiteSpace=wrap;" vertex="1" parent="0rbXkGvfVulxc9f4ZoiJ-17">
          <mxGeometry x="-1.3380281690140847" y="10" width="192.67605633802816" height="40" as="geometry" />
        </mxCell>
        <mxCell id="0rbXkGvfVulxc9f4ZoiJ-43" value="" style="shape=image;html=1;verticalLabelPosition=bottom;verticalAlign=top;imageAspect=1;aspect=fixed;image=img/clipart/Gear_128x128.png;fontSize=14;fontColor=#FFFFFF;strokeColor=#808080;fillColor=#6C767D;" vertex="1" parent="0rbXkGvfVulxc9f4ZoiJ-17">
          <mxGeometry x="10" y="56.5" width="32.82" height="38.5" as="geometry" />
        </mxCell>
        <mxCell id="0rbXkGvfVulxc9f4ZoiJ-44" value="" style="image;html=1;image=img/lib/clip_art/people/Farmer_Man_Black_128x128.png;fontSize=14;fontColor=#FFFFFF;strokeColor=#808080;fillColor=#6C767D;" vertex="1" parent="0rbXkGvfVulxc9f4ZoiJ-17">
          <mxGeometry x="10" width="41" height="60" as="geometry" />
        </mxCell>
        <mxCell id="0rbXkGvfVulxc9f4ZoiJ-31" value="" style="html=1;shadow=0;dashed=0;shape=mxgraph.bootstrap.rrect;rSize=5;fillColor=#ffffff;strokeColor=#999999;fontSize=14;fontColor=#FFFFFF;" vertex="1" parent="0rbXkGvfVulxc9f4ZoiJ-1">
          <mxGeometry x="440" y="110" width="187.01" height="140" as="geometry" />
        </mxCell>
        <mxCell id="0rbXkGvfVulxc9f4ZoiJ-32" value="Action" style="fillColor=none;strokeColor=none;align=left;spacing=20;fontSize=14;fontColor=#FFFFFF;" vertex="1" parent="0rbXkGvfVulxc9f4ZoiJ-31">
          <mxGeometry width="170" height="30" relative="1" as="geometry">
            <mxPoint y="10" as="offset" />
          </mxGeometry>
        </mxCell>
        <mxCell id="0rbXkGvfVulxc9f4ZoiJ-33" value="Another action" style="fillColor=none;strokeColor=none;align=left;spacing=20;fontSize=14;fontColor=#FFFFFF;" vertex="1" parent="0rbXkGvfVulxc9f4ZoiJ-31">
          <mxGeometry width="170" height="30" relative="1" as="geometry">
            <mxPoint y="40" as="offset" />
          </mxGeometry>
        </mxCell>
        <mxCell id="0rbXkGvfVulxc9f4ZoiJ-34" value="Something else here" style="fillColor=none;strokeColor=none;align=left;spacing=20;fontSize=14;fontColor=#FFFFFF;" vertex="1" parent="0rbXkGvfVulxc9f4ZoiJ-31">
          <mxGeometry width="170" height="30" relative="1" as="geometry">
            <mxPoint y="70" as="offset" />
          </mxGeometry>
        </mxCell>
        <mxCell id="0rbXkGvfVulxc9f4ZoiJ-37" value="&lt;span style=&quot;color: rgb(0 , 0 , 0) ; font-size: 14px&quot;&gt;Corretiva&lt;/span&gt;" style="html=1;shadow=0;dashed=0;fillColor=none;strokeColor=none;shape=mxgraph.bootstrap.rect;fontColor=#999999;whiteSpace=wrap;" vertex="1" parent="0rbXkGvfVulxc9f4ZoiJ-31">
          <mxGeometry x="-11.338147718294893" width="192.6780879332589" height="37.333333333333336" as="geometry" />
        </mxCell>
        <mxCell id="0rbXkGvfVulxc9f4ZoiJ-38" value="&lt;span style=&quot;color: rgb(0 , 0 , 0) ; font-size: 14px&quot;&gt;Preditiva&lt;/span&gt;" style="html=1;shadow=0;dashed=0;fillColor=none;strokeColor=none;shape=mxgraph.bootstrap.rect;fontColor=#999999;whiteSpace=wrap;" vertex="1" parent="0rbXkGvfVulxc9f4ZoiJ-31">
          <mxGeometry x="-4.83808793325891" y="37.333333333333336" width="192.6780879332589" height="37.333333333333336" as="geometry" />
        </mxCell>
        <mxCell id="0rbXkGvfVulxc9f4ZoiJ-39" value="&lt;span style=&quot;color: rgb(0 , 0 , 0) ; font-size: 14px&quot;&gt;Preventiva&lt;/span&gt;" style="html=1;shadow=0;dashed=0;fillColor=none;strokeColor=none;shape=mxgraph.bootstrap.rect;fontColor=#999999;whiteSpace=wrap;" vertex="1" parent="0rbXkGvfVulxc9f4ZoiJ-31">
          <mxGeometry x="-2.83808793325891" y="79.99666666666667" width="192.6780879332589" height="37.333333333333336" as="geometry" />
        </mxCell>
      </root>
    </mxGraphModel>
  </diagram>
</mxfile>
